<svg xmlns="http://www.w3.org/2000/svg" viewBox="0 0 497.6 497.8"><title>earth-fixed</title><g style="isolation:isolate"><circle cx="248.54" cy="248.54" r="248.54" style="fill:#99f1ff"/><path d="M494.23,204.61A248.39,248.39,0,0,0,402.49,53.48c-11,5.74-98.82,52.77-91.78,82.67,7.5,31.89,56.27-16.88,69.4,0s39.4-17.06,43.15,19.61-39.4,52.89-28.14,75.73,7.5,19.44,45,28.64,50.65,28.06,30,50.52c-17.87,19.46-2.94,44.76,1.38,51.18A247.2,247.2,0,0,0,488,320.52C495.75,291.43,502,250.09,494.23,204.61Z" transform="translate(-1.2 -1)" style="fill:#8aec8b"/><path d="M134.38,88.7C151.26,106.14,226.3,51,226.3,51h39.39s48.77-19.48,58.15,0c8.39,17.42,36.45-14.24,42.29-21.12A248.62,248.62,0,0,0,60.77,88.12C71.29,85.24,119.38,73.2,134.38,88.7Z" transform="translate(-1.2 -1)" style="fill:#8aec8b"/><path d="M398.25,407.52c-11.88-21.89,21.09-25.64-31-30s-90.89,6.87-109.65-25,28.76-62.52,26.26-69.4,24.13-1.4,16.62,2.35,46.9,26.26,27.51,1.88-6-11.11-23.49-19.86-38.77-16.26-25.64-41.9,30-15,26.26-42.51,7.5-31.89-19.38-44.4,17.51-25.63-31.89-12.5-59.4,16.88-59.4,18.75S188.78,163,188.78,163s-20.63-.63-17.51-21.26-8.13-27.51-8.13-27.51-13.75-8.13-38.14-7.51-35,8.13-26.88,7.51,1.25,15-7.51,15-27.51-3.12-29.38,5-9.38,8.12.62,12.5,18.76,5.63,18.76,8.75,22.51,11.26,3.75,11.88-11.88-6.25-31.26-5.62-21.26,1.87-21.89,8.75-13.13,3.75-.62,6.88,16.25,3.75,16.25,3.75l-6.87,10s-53.78,20.64.62,6.88c50.24-12.7,65.27-20.07,67.28-21.12l.25-.14-.25.14c-4.74,2.55-75.51,41.11-60.4,58.64,15.63,18.13,60,27.51,54.4,45s37.51,30,37.51,39.39,49.4,13.76,51.9,30.64c0,0,3.13,8.63,19.39,12.76s19.38,24.75,0,42.26-43.77,38.14-26.89,56.9,33,33.3,33.1,33.38a250.84,250.84,0,0,0,32.86,2.17,248.35,248.35,0,0,0,76.61-12c12.71-4.88,22.4-8.75,29.78-11.82q11.22-5.33,21.79-11.69C378.41,462,410,429.23,398.25,407.52Z" transform="translate(-1.2 -1)" style="fill:#8aec8b"/><path d="M100,387.51c5-19.38-14.38-18.13-25.63-33.14-9.92-13.22-51.24-25-60.92-27.65A249,249,0,0,0,99,447.14C98.31,439.46,95.56,404.69,100,387.51Z" transform="translate(-1.2 -1)" style="fill:#8aec8b"/><path d="M458.38,384.66q-3.53,5.43-7.33,10.67h12.62V384.66Z" transform="translate(-1.2 -1)" style="fill:none"/><rect x="236.73" y="189.73" width="253.34" style="fill:none"/><path d="M237.93,166.78v23.95H491.27a249.34,249.34,0,0,0-7.11-23.95H237.93Z" transform="translate(-1.2 -1)" style="fill:none"/><path d="M237.93,166.78v-78a24.82,24.82,0,0,1-24.48,24.78v53.21Z" transform="translate(-1.2 -1)" style="fill:none"/><path d="M346.25,330.29a14.64,14.64,0,0,0-14.7-14.64l-93,.37a18.58,18.58,0,0,1-9.79-2.76v45H198.06v26.37H458.38a247.76,247.76,0,0,0,20.93-39.73H360.89A14.64,14.64,0,0,1,346.25,330.29Z" transform="translate(-1.2 -1)" style="fill:none"/><path d="M408.71,398.58a13.93,13.93,0,0,1-13.93,13.93H372.57a12,12,0,0,0-12,12.05h0a12,12,0,0,0,12,12h40.82a250,250,0,0,0,37.66-41.27H408.31A13.91,13.91,0,0,1,408.71,398.58Z" transform="translate(-1.2 -1)" style="fill:none"/><path d="M121.5,422.3h96.37a9.41,9.41,0,0,0,0-18.82H202.06a9.39,9.39,0,0,1-4-17.9v-.92H100.8V443A20.7,20.7,0,0,1,121.5,422.3Z" transform="translate(-1.2 -1)" style="fill:none"/><path d="M220,340.49a8.9,8.9,0,0,1,0,17.8h8.9v-45a18.6,18.6,0,0,1,0-31.77v-32H198.06V340a17.8,17.8,0,0,0,3.28.34Z" transform="translate(-1.2 -1)" style="fill:none"/><path d="M198.06,215.55v1.06h.06C198.1,216.26,198.06,215.91,198.06,215.55Z" transform="translate(-1.2 -1)" style="fill:none"/><path d="M228.8,281.49a18.49,18.49,0,0,1,9.72-2.76h72.75a19.18,19.18,0,1,0,0-38.36H222.89a24.8,24.8,0,0,1-24.77-23.76h-.06v32.93H228.8Z" transform="translate(-1.2 -1)" style="fill:none"/><path d="M227.28,478A14.31,14.31,0,0,0,213,463.7h-89.4a246.75,246.75,0,0,0,72.74,28.61H213A14.31,14.31,0,0,0,227.28,478Z" transform="translate(-1.2 -1)" style="fill:none"/><path d="M408.31,395.33h42.74q3.79-5.24,7.33-10.67H394.79A13.92,13.92,0,0,1,408.31,395.33Z" transform="translate(-1.2 -1)" style="fill:none"/><path d="M198.06,190.73h39.87V166.78H213.45V113.57l-.35,0H153a11.5,11.5,0,0,0,0,23H191a8.28,8.28,0,0,1,0,16.55H126.63a14.72,14.72,0,0,0-14.71,14.72h0a14.72,14.72,0,0,0,14.71,14.72h27.14a17,17,0,1,1,0,34h44.29V190.73Z" transform="translate(-1.2 -1)" style="fill:none"/><path d="M384.9,458.15q5.91-3.84,11.58-8h-2.31A9.4,9.4,0,0,0,384.9,458.15Z" transform="translate(-1.2 -1)" style="fill:none"/><path d="M202.06,384.66h-4v.92A9.25,9.25,0,0,1,202.06,384.66Z" transform="translate(-1.2 -1)" style="fill:none"/><path d="M198.06,215.55a24.83,24.83,0,0,1,24.83-24.82H198.06Z" transform="translate(-1.2 -1)" style="fill:none"/><path d="M237.93,88.72v78.06h139a25.34,25.34,0,1,1,0-50.67h15.72a12.84,12.84,0,0,0,0-25.68H299.4a24.2,24.2,0,0,1-24.19-24.2,24.2,24.2,0,0,0-24-24.19l-25.56-.15a12.23,12.23,0,0,1-12.15-12.23V63.92h24.48Z" transform="translate(-1.2 -1)" style="fill:none"/><path d="M100.8,384.66h97.26V358.29H26.2a249.66,249.66,0,0,0,74.6,90.24V384.66Z" transform="translate(-1.2 -1)" style="fill:none"/><path d="M100.8,443v5.53l1,.71A20.73,20.73,0,0,1,100.8,443Z" transform="translate(-1.2 -1)" style="fill:none"/><path d="M109.78,249.54a18.45,18.45,0,0,1,0,36.9H98.33a9.36,9.36,0,0,0,0,18.71h67.88a17.61,17.61,0,0,1,17.62,17.61A17.61,17.61,0,0,0,198.06,340v-90.5Z" transform="translate(-1.2 -1)" style="fill:none"/><path d="M25.61,334.58a11.86,11.86,0,1,0,0-23.71H16.83a8,8,0,0,1-8-8,7.94,7.94,0,0,0-3.19-6.35,246.93,246.93,0,0,0,10.47,38Z" transform="translate(-1.2 -1)" style="fill:none"/><path d="M109.78,249.54h88.28V216.61H3.38A250.3,250.3,0,0,0,1.2,249.54H109.78Z" transform="translate(-1.2 -1)" style="fill:none"/><path d="M2.72,266.72a8.59,8.59,0,0,0,8.58-8.59,8.6,8.6,0,0,1,8.59-8.59H1.2c0,5.78.21,11.5.6,17.18Z" transform="translate(-1.2 -1)" style="fill:none"/><path d="M237.93,88.79v-.07a24.82,24.82,0,0,0-24.48-24.78v49.63A24.82,24.82,0,0,0,237.93,88.79Z" transform="translate(-1.2 -1)" style="fill:#e8e8e8"/><path d="M170.79,199.59a17,17,0,0,0-17-17H126.63a14.72,14.72,0,0,1-14.71-14.72h0a14.72,14.72,0,0,1,14.71-14.72H191a8.28,8.28,0,0,0,0-16.55H153a11.5,11.5,0,0,1,0-23H213.1l.35,0V63.94l-.35,0H84.49A248,248,0,0,0,3.38,216.61H153.77A17,17,0,0,0,170.79,199.59Z" transform="translate(-1.2 -1)" style="fill:#e8e8e8"/><path d="M198.06,395.33H408.31a13.92,13.92,0,0,0-13.52-10.67H202.06a9.25,9.25,0,0,0-4,.92Z" transform="translate(-1.2 -1)" style="fill:#e6e6e6"/><path d="M360.53,424.56h0a12,12,0,0,1,12-12.05h22.21a13.87,13.87,0,0,0,13.53-17.18H198.06v-9.75a9.39,9.39,0,0,0,4,17.9h15.81a9.41,9.41,0,0,1,0,18.82H121.5a20.71,20.71,0,0,0-19.74,26.94,248.83,248.83,0,0,0,21.81,14.46H213a14.31,14.31,0,1,1,0,28.61H196.31A249,249,0,0,0,384.9,458.15a9.4,9.4,0,0,1,9.27-8h2.31q8.75-6.4,16.91-13.55H372.57A12,12,0,0,1,360.53,424.56Z" transform="translate(-1.2 -1)" style="fill:#e6e6e6"/><path d="M213.45,29.66A12.23,12.23,0,0,0,225.6,41.89l25.56.15a24.2,24.2,0,0,1,24,24.19,24.2,24.2,0,0,0,24.19,24.2h93.22a12.84,12.84,0,0,1,0,25.68H376.9a25.34,25.34,0,1,0,0,50.67H484.16A249.27,249.27,0,0,0,338.77,17.44H225.67A12.22,12.22,0,0,0,213.45,29.66Z" transform="translate(-1.2 -1)" style="fill:#ececec"/><path d="M198.06,340a17.61,17.61,0,0,1-14.23-17.28,17.61,17.61,0,0,0-17.62-17.61H98.33a9.36,9.36,0,0,1,0-18.71h11.45a18.45,18.45,0,0,0,0-36.9H19.89a8.6,8.6,0,0,0-8.59,8.59,8.59,8.59,0,0,1-8.58,8.59H1.8a247.71,247.71,0,0,0,3.86,29.82,7.94,7.94,0,0,1,3.19,6.35,8,8,0,0,0,8,8h8.78a11.86,11.86,0,1,1,0,23.71H16.13A250.91,250.91,0,0,0,26.2,358.29H198.06Z" transform="translate(-1.2 -1)" style="fill:#f4f4f4"/><path d="M228.8,349.39a8.9,8.9,0,0,0-8.85-8.9l-18.61-.11a17.8,17.8,0,0,1-3.28-.34v18.25H219.9A8.89,8.89,0,0,0,228.8,349.39Z" transform="translate(-1.2 -1)" style="fill:#f4f4f4"/><path d="M219.88,297.38a18.6,18.6,0,0,0,8.92,15.88V281.49A18.63,18.63,0,0,0,219.88,297.38Z" transform="translate(-1.2 -1)" style="fill:#f9f9f9"/><path d="M237.93,190.73v25.88H198.12a24.8,24.8,0,0,0,24.77,23.76h88.38a19.18,19.18,0,1,1,0,38.36H238.52a18.49,18.49,0,0,0-9.72,2.76v31.77a18.58,18.58,0,0,0,9.79,2.76l93-.37a14.64,14.64,0,0,1,14.7,14.64,14.64,14.64,0,0,0,14.64,14.64H479.31a249.44,249.44,0,0,0,12-154.2Z" transform="translate(-1.2 -1)" style="fill:#f9f9f9"/><path d="M198.06,215.55c0,.36,0,.71.06,1.06h39.81V190.73h-15A24.83,24.83,0,0,0,198.06,215.55Z" transform="translate(-1.2 -1)" style="fill:#f9f9f9"/><path d="M496.14,286.33c.11-.75.2-1.49.3-2.24.17-1.24.34-2.48.5-3.71.11-.94.21-1.88.32-2.81l.33-3.08c.1-1.06.19-2.11.28-3.16.08-.89.16-1.78.22-2.67q.14-1.73.24-3.45c0-.76.09-1.53.13-2.29.06-1.24.12-2.49.17-3.73l.06-1.9q.06-2,.09-4.05c0-.45,0-.9,0-1.36,0-1.5,0-3,0-4.52h0v-.05a245.48,245.48,0,0,0-2-28.68.22.22,0,0,0,0-.08c-.21-1.67-.45-3.35-.7-5,0-.26-.07-.53-.12-.8-.23-1.55-.49-3.09-.75-4.63-.07-.38-.13-.77-.2-1.15-.26-1.47-.54-2.94-.82-4.4l-.27-1.34c-.28-1.42-.58-2.84-.89-4.25-.11-.48-.21-1-.32-1.44-.32-1.39-.65-2.78-1-4.17-.12-.49-.24-1-.37-1.47-.34-1.37-.7-2.74-1.06-4.1-.14-.49-.27-1-.41-1.48-.37-1.36-.76-2.72-1.16-4.08l-.42-1.42c-.42-1.37-.84-2.74-1.27-4.1-.14-.44-.29-.87-.43-1.31-.45-1.4-.92-2.79-1.4-4.18-.12-.37-.26-.74-.39-1.11-.51-1.45-1-2.89-1.56-4.33-.09-.25-.19-.49-.28-.74q-1.26-3.34-2.61-6.66l-.08-.19a246.06,246.06,0,0,0-10.83-23l-.12-.23q-1.14-2.13-2.33-4.23l-.44-.81q-1.11-1.95-2.25-3.88c-.22-.36-.43-.73-.64-1.09-.74-1.23-1.49-2.45-2.25-3.67-.25-.41-.49-.81-.75-1.21-.74-1.19-1.5-2.37-2.27-3.54-.27-.43-.55-.85-.83-1.27-.76-1.16-1.54-2.3-2.32-3.45l-.88-1.28c-.79-1.13-1.58-2.26-2.39-3.38l-.91-1.26c-.82-1.12-1.64-2.23-2.47-3.34l-.92-1.2c-.85-1.12-1.71-2.23-2.59-3.33-.28-.37-.58-.73-.87-1.09-.9-1.13-1.81-2.26-2.73-3.37-.26-.31-.52-.61-.77-.92-1-1.16-1.95-2.32-2.95-3.46l-.54-.62a249.59,249.59,0,0,0-17.38-18h0l.53.47c.86.81,1.69,1.65,2.5,2.5.26.27.5.55.74.82.56.6,1.11,1.22,1.64,1.85.26.31.52.63.77,1,.52.63,1,1.28,1.5,1.93l.67.9c.58.82,1.14,1.64,1.69,2.49l.29.43c.66,1,1.28,2.09,1.88,3.16l.24.45c.5.91,1,1.85,1.45,2.79l.39.81c.41.88.8,1.76,1.19,2.66.11.26.22.52.32.78.43,1,.83,2.07,1.21,3.13l.12.34c.88,2.48,1.64,5,2.29,7.69l.06.22c.29,1.23.57,2.48.82,3.75,0,.14,0,.27.08.41.25,1.3.48,2.62.68,4,0,0,0,.06,0,.09a108.64,108.64,0,0,1,1.14,13.29v0c0,1.53.05,3.07,0,4.64h0a163.76,163.76,0,0,1-3.9,32.9l-.12.59c-.24,1.09-.5,2.19-.76,3.3-.06.29-.13.57-.2.86-.25,1.06-.52,2.12-.79,3.18-.09.34-.17.68-.26,1-.27,1-.55,2.07-.84,3.11-.1.38-.21.75-.31,1.12-.29,1-.59,2.07-.9,3.1-.11.39-.23.78-.34,1.17l-1,3.11c-.13.39-.25.79-.38,1.18-.34,1-.68,2.09-1,3.15l-.39,1.15c-.37,1.07-.74,2.14-1.12,3.22-.12.36-.26.73-.39,1.09-.39,1.1-.79,2.2-1.21,3.31-.12.33-.24.65-.37,1-.43,1.15-.87,2.31-1.33,3.47l-.28.72-1.51,3.76-.09.2q-4.08,9.92-9.07,20.07l-.08.17c-.94,1.89-1.89,3.79-2.87,5.7l-.32.63-1.93,3.68c-.17.31-.34.62-.5.94-.63,1.17-1.27,2.35-1.92,3.53l-.6,1.1c-.63,1.14-1.28,2.29-1.93,3.44l-.67,1.19c-.65,1.13-1.3,2.27-2,3.4-.24.41-.47.82-.72,1.23-.66,1.13-1.34,2.27-2,3.4l-.73,1.22c-.69,1.14-1.39,2.28-2.1,3.43l-.74,1.18q-1.08,1.74-2.19,3.48l-.7,1.09c-.76,1.2-1.53,2.39-2.32,3.58l-.61.94c-.83,1.25-1.65,2.49-2.49,3.74-.15.22-.3.43-.44.65-.91,1.34-1.83,2.69-2.76,4l0,.06q-7.85,11.35-16.69,22.64l0,0h0q-1.37,1.74-2.78,3.5l-.83,1.05L362,307.06l-1.2,1.46c-.78,1-1.58,1.9-2.37,2.85L357,313.12l-2.23,2.63c-.57.67-1.15,1.35-1.74,2L351,320.16l-2,2.32L347,324.59c-.83.93-1.67,1.85-2.51,2.78L343,329q-2,2.23-4.13,4.45c-1.88,2-3.78,4-5.69,6l-1.47,1.5q-2.56,2.63-5.14,5.18l-.64.65q-3,2.94-6,5.81l-.95.9c-1.85,1.77-3.72,3.52-5.58,5.25l-.52.48q-6.41,5.91-12.89,11.47l-.2.16q-2.6,2.23-5.21,4.41h0a434,434,0,0,1-42.11,31.08l-.05,0h0c-37.68,24.34-74.75,39.13-106.34,42.52l-.1,0c-1.3.13-2.6.25-3.88.35h0q-3.93.3-7.73.36h0c-1.58,0-3.15,0-4.69,0h-.28a89.89,89.89,0,0,1-23.79-3.7l-.1,0c-1.6-.49-3.18-1-4.72-1.63h0c-1.49-.57-3-1.2-4.38-1.86l-.26-.12c-1.38-.65-2.74-1.36-4.06-2.1l-.55-.32c-1.22-.7-2.42-1.44-3.59-2.22l-.3-.19c-1.19-.81-2.36-1.67-3.49-2.57l-.75-.6c-1.09-.89-2.17-1.81-3.21-2.78a247,247,0,0,0,96,56h0q7.44,2.32,15.12,4.18l1.61.39c1.95.46,3.9.89,5.87,1.31l1.94.41c2.48.5,5,1,7.48,1.41,3,.51,5.89.94,8.83,1.34l1.93.26c2.92.37,5.84.7,8.76,1l.71.06q4.24.38,8.48.61l1.26.07c3,.15,6.06.25,9.08.29h.55c3.1,0,6.2,0,9.28-.06h.06q4.77-.14,9.52-.44l.19,0a247.06,247.06,0,0,0,42.33-6.51l.44-.11q3.75-.93,7.47-2h0q6-1.67,11.8-3.62l.05,0c1.91-.64,3.8-1.3,5.69-2l.16-.06a249.65,249.65,0,0,0,115.06-85.54h0l0,0a246.42,246.42,0,0,0,27.69-47.48h0c.94-2.12,1.84-4.26,2.72-6.41a2.44,2.44,0,0,0,.1-.24q3.29-8.05,6-16.41l.21-.67c.79-2.44,1.55-4.9,2.26-7.37.13-.43.25-.84.37-1.27.76-2.67,1.49-5.36,2.16-8.07.08-.3.14-.59.21-.89.58-2.35,1.12-4.73,1.63-7.12.15-.68.3-1.37.44-2.06.55-2.68,1.08-5.37,1.54-8.09C495.53,290.33,495.84,288.33,496.14,286.33Z" transform="translate(-1.2 -1)" style="fill:#b3b3b3;opacity:0.15;mix-blend-mode:multiply"/></g></svg>