<svg xmlns="http://www.w3.org/2000/svg" viewBox="0 0 500 500"><title>mars-fixed</title><circle cx="250" cy="250" r="250" style="fill:#fa8760"/><ellipse cx="286.31" cy="184.77" rx="46.92" ry="34.06" style="fill:#f96938"/><ellipse cx="311.7" cy="368.25" rx="43.06" ry="52.38" style="fill:#f96938"/><path d="M182.52,287a83.11,83.11,0,0,0-12.85,1.29v1c0,17.36-14.14,31.49-32.78,34.39,1.93,17.35,21.53,30.84,45.31,30.84,25.06,0,45.63-15.1,45.63-33.74C228.15,301.74,207.58,287,182.52,287Z" style="fill:#f96938"/><ellipse cx="400.39" cy="242.29" rx="37.92" ry="46.27" style="fill:#f96938"/><path d="M89.33,170.31a33.71,33.71,0,0,1-9-7.39,20.76,20.76,0,0,0-6.42-1.29,18,18,0,1,0,18,18A19.31,19.31,0,0,0,89.33,170.31Z" style="fill:#f96938"/><ellipse cx="210.8" cy="114.72" rx="28.6" ry="25.06" style="fill:#f96938"/><path d="M89.33,170.31A29.6,29.6,0,1,0,73.91,144.6a31.14,31.14,0,0,0,6.42,18.64A17.85,17.85,0,0,1,89.33,170.31Z" style="fill:#f96938"/><path d="M89.33,170.31a17.15,17.15,0,0,0-9-7.39A24.83,24.83,0,0,0,89.33,170.31Z" style="fill:#f96938"/><path d="M169.67,288.24c-.65-19-17.68-34.06-38.89-34.06-21.53,0-38.88,15.42-38.88,34.7s17.35,34.71,38.88,34.71c2.25,0,4.18-.33,6.11-.33,0-1-.32-1.92-.32-2.89C136.89,305.27,150.71,292.1,169.67,288.24Z" style="fill:#f96938"/><path d="M169.67,288.88v-1c-19,4.18-32.78,17-32.78,32.13a8.89,8.89,0,0,0,.32,2.89C155.53,320.69,169.67,306.23,169.67,288.88Z" style="fill:#f96938"/><path d="M335.8,433.8c-27.32,0-49.49,14.79-49.49,32.78,0,10.93,8,20.25,19.92,26.35A245.42,245.42,0,0,0,384,460.15C379.82,445.37,359.9,433.8,335.8,433.8Z" style="fill:#f96938"/><path d="M151.35,433.8c-20.24,0-38.24,7.07-48.84,17.68a247.08,247.08,0,0,0,100.25,43.7c5.14-6.11,8.36-13.17,8.36-20.57C210.8,452.12,184.13,433.8,151.35,433.8Z" style="fill:#f96938"/><path d="M258.68,38.88c0,21.21,23.78,38.56,53,38.56s53-17.35,53-38.56a32.11,32.11,0,0,0-2.57-12.21A247.09,247.09,0,0,0,290.49,3.21C271.85,9.32,258.68,22.81,258.68,38.88Z" style="fill:#f96938"/><g style="opacity:0.230000004172325"><path d="M442.16,90.3C483,139.46,440.07,261.08,334,349.13,228.31,437.17,99.29,458.55,58.16,410A249.1,249.1,0,0,0,250,499.68c137.85,0,250-111.83,250-250A250.89,250.89,0,0,0,442.16,90.3Z" style="fill:#7a7a7a"/><path d="M441.84,90l-.32-.32.32.32Z" style="fill:#7a7a7a"/><path d="M57.84,409.7l.32.33-.32-.33Z" style="fill:#7a7a7a"/></g></svg>