<svg xmlns="http://www.w3.org/2000/svg" viewBox="0 0 298.44 500.15"><title>rocket-flame</title><path d="M44.75,1.56C15.43,1.77-5.84,36.85,1.44,73c20.77,103.15,64.35,293.9,121.09,402,18.29,34.85,47.72,33.43,64.28-3.9,45.61-102.83,88.66-294.53,110.15-399,7.51-36.52-14.36-72.25-44.1-72Z" style="fill:#f96938"/><path d="M54.56,1.42C28.63,1.61,9.38,27.6,14.73,55.23c17.62,91,57.87,276.18,110.93,379.26,16.41,31.88,42.81,30.59,57.66-3.56C226,332.88,266.07,146.5,284.41,54.23,290,26.26,270.27-.14,244,.05Z" style="fill:#ff900b"/><path d="M48.1,1.52C29.55,1.65,16,21.05,20.27,41.24,36.23,115.91,75,278.4,126.55,367.81c15.55,27,40.62,25.85,54.75-3.06C222.88,279.65,262,116,278.86,40.14,283.4,19.69,269.46-.09,250.61.05Z" style="fill:#fcc62b"/><path d="M61.28,1.29C37.11,1.47,19.59,23.22,25.75,45.4c17.36,62.54,53.5,177,100.74,242,15.29,21,40,20.13,54-2.47C218.74,223,255,107.82,273.34,44.4,279.82,21.94,261.92-.16,237.4,0Z" style="fill:#ffe600"/><path d="M53.55,1.39c-15.36.11-26.28,14-21.76,27.7C47,75.15,81.52,168,127.33,219.63c14.22,16.05,37.25,15.33,50.29-1.95C214.88,168.33,250.2,74.82,266.54,28c4.84-13.89-6.32-28.1-22-28Z" style="fill:#ffff45"/><path d="M56.38,1.39a16.58,16.58,0,0,0-15,23.31c14.88,33.47,46.11,95.22,87.17,130.14,13.25,11.26,34.74,10.72,46.94-1.46C209,119.92,240.91,57.73,256.94,23.67A16.57,16.57,0,0,0,241.82.05Z" style="fill:#ffffc6"/></svg>