<svg xmlns="http://www.w3.org/2000/svg" viewBox="0 0 262.08 499"><title>Rocket-fixed</title><g style="isolation:isolate"><path d="M183.75,331.33l-52.63,27.52-53-26.59L55.35,436.19s29,26.92,76.4,28.15c47.34-2.07,76.06-29.49,76.06-29.49Z" transform="translate(0 -1)" style="fill:#7a7a7a"/><path d="M131.8,466.07c-47.36-1.22-77-28.22-77.32-28.5a2,2,0,0,1-.51-1.83L76.79,331.81a1.68,1.68,0,0,1,.74-1.11,1.24,1.24,0,0,1,1.18-.05L131.11,357l52.08-27.23a1.21,1.21,0,0,1,1.18,0,1.68,1.68,0,0,1,.75,1.09l24.06,103.53a2,2,0,0,1-.49,1.83C208.39,436.49,179.05,464,131.8,466.07ZM57,435.48c4.88,4.14,32.67,26,74.8,27.12,42-1.83,69.55-24.21,74.39-28.43L182.82,333.7l-51.14,26.74a1.16,1.16,0,0,1-1.1,0L79.12,334.62Z" transform="translate(0 -1)" style="fill:#aaa"/><path d="M170.8,127.61a1.84,1.84,0,0,1,2.18.61,149.25,149.25,0,0,1,7.69,15.6,33.64,33.64,0,0,0-2.22-12.23c-13.8-36.33-30.21-52.36-41.56-59.41a17,17,0,0,0-17.58.1C108.09,79.46,92,95.68,78.83,132.17,74.37,144.56,77.35,157.63,87,168c9.47,10.19,23.89,16.09,39.56,16.19.82,0,1.66,0,2.51,0s1.75,0,2.58,0c15.66-.28,30-6.35,39.26-16.65a37.34,37.34,0,0,0,9-17.16,164.06,164.06,0,0,0-9.92-21A1.22,1.22,0,0,1,170.8,127.61Z" transform="translate(0 -1)" style="fill:#000020"/><path d="M243.1,378.89c-5.3-8.4-11-17.25-15.87-24.33.2-1.18.39-2.36.56-3.57a535.6,535.6,0,0,0,4.8-84.49A567.92,567.92,0,0,0,225.86,188a434.82,434.82,0,0,0-17.24-70.92,349.14,349.14,0,0,0-17.24-42,296.14,296.14,0,0,0-17.24-30.49A249.36,249.36,0,0,0,156.9,21.12c-3-3.55-5.77-6.73-8.42-9.55a27.87,27.87,0,0,0-41,.29c-.76.85-1.55,1.72-2.34,2.63A233.45,233.45,0,0,0,87.94,36.77,281.26,281.26,0,0,0,70.7,65.66,332.37,332.37,0,0,0,53.46,105a407,407,0,0,0-17.24,63.33c-5.51,28.89-8.95,62-9.12,99.65a534.29,534.29,0,0,0,6,84.41c.28,1.84.61,3.64,1,5.41C29.39,364.71,24,373.07,19,381,9.73,395.67,1.74,408.93,1.74,408.93l12.87,55.74L19,446.17l9.65-40.82,7.59-5.91,10.7-8.34a93.76,93.76,0,0,0,6.54,9.31A91.4,91.4,0,0,0,70.7,417a94.11,94.11,0,0,0,17.24,10.07,100.46,100.46,0,0,0,17.24,6,103.69,103.69,0,0,0,17.24,2.75,105.57,105.57,0,0,0,17.24-.13,103.85,103.85,0,0,0,17.24-3,100.36,100.36,0,0,0,17.24-6.25,96.08,96.08,0,0,0,17.24-10.48,92.48,92.48,0,0,0,23.71-27l10.77,8.39,7.59,5.91L243.1,444l4.37,18.5,12.87-55.74S252.35,393.54,243.1,378.89Z" transform="translate(0 -1)" style="fill:#fdfde2"/><path d="M202.91,102.27c-.83-7.48-3.49-10.16-10.9-25C173.25,39.8,153.6,15.09,138.44,6.11c-5.68-3.37-15.34-3.3-21,.15-15,9.2-36,34.79-53.14,73.24C60.12,89,56.68,97.41,53.91,104.68c-3.59,9.41,9.07,15.91,28.33,19.5,12.44-30.3,26.81-44.45,37.07-51a17,17,0,0,1,17.58-.11c10.22,6.36,24.56,20,37.39,49.22C191.89,118.11,203.92,111.46,202.91,102.27Z" transform="translate(0 -1)" style="fill:#7dd4c4"/><path d="M125.51,340c30.72-.23,64.94-5.3,105.73-21.6.06-5.71.89-5.6.78-11.52,0-1.32.71-8.77.68-10.08C166.57,325,113,322.89,77.63,315.65c-22.19-4.54-38.1-9.81-49.75-15.64,0,1.24,0,2.48,0,3.74,0,6.2,1.35,12,1.51,17.94C41.3,327,54,330.89,72.54,334.78A249,249,0,0,0,125.51,340Z" transform="translate(0 -1)" style="fill:#fcc62b"/><path d="M125.51,340c30.72-.23,64.94-5.3,105.73-21.6.06-5.71.89-5.6.78-11.52,0-1.32.71-8.77.68-10.08C166.57,325,113,322.89,77.63,315.65c-22.19-4.54-38.1-9.81-49.75-15.64,0,1.24,0,2.48,0,3.74,0,6.2,1.35,12,1.51,17.94C41.3,327,54,330.89,72.54,334.78A249,249,0,0,0,125.51,340Z" transform="translate(0 -1)" style="fill:#ffffc6"/><path d="M125.51,340c30.72-.23,64.94-5.3,105.73-21.6.06-5.71.89-5.6.78-11.52,0-1.32.71-8.77.68-10.08C166.57,325,113,322.89,77.63,315.65c-22.19-4.54-38.1-9.81-49.75-15.64,0,1.24,0,2.48,0,3.74,0,6.2,1.35,12,1.51,17.94C41.3,327,54,330.89,72.54,334.78A249,249,0,0,0,125.51,340Z" transform="translate(0 -1)" style="fill:#fcc62b;mix-blend-mode:darken"/><path d="M79.07,343.32a196.74,196.74,0,0,1-49.29-17.13c.3,7.69,2.4,16.69,3,24,11.47,5.08,23.9,8.52,41.33,12.27a238.12,238.12,0,0,0,51.72,5.2c29.67-.22,63.26-5.08,102.55-21,.45-7.08,2.44-15,2.62-22.45C166.53,352.36,113.52,350.56,79.07,343.32Z" transform="translate(0 -1)" style="fill:#fddbce"/><path d="M79.07,343.32a196.74,196.74,0,0,1-49.29-17.13c.3,7.69,2.27,15.8,2.85,23.09A204.34,204.34,0,0,0,74.1,362.45a238.12,238.12,0,0,0,51.72,5.2c29.67-.22,63.26-5.08,102.55-21,.45-7.08,1.26-12.27,2.62-22.45C166.53,352.36,113.52,350.56,79.07,343.32Z" transform="translate(0 -1)" style="fill:#fa8760"/><path d="M73.74,229.07a19.31,19.31,0,0,0-21,12.7c-1,2.88-.82,3.29,2,4.19,9.52,3.08,19.15,5.76,28.92,7.91,5.89,1.29,6.64.68,6.63-5.61A19.54,19.54,0,0,0,73.74,229.07Z" transform="translate(0 -1)" style="fill:#03949b;opacity:0.45"/><path d="M138.44,269.69c3.82-1.21,4.58-3.94,2.11-7.1a21.39,21.39,0,0,0-5.9-4.81c-8.19-5.06-17.05-8.64-26-12-.93-.35-2-.57-2.25.41s.85,1.34,1.68,1.67c4.46,1.82,9,3.54,13.38,5.5,5.69,2.54,11.34,5.21,16.16,9.31,1.06.91,2.42,1.91,2.11,3.43s-2.12,1.59-3.42,2a7,7,0,0,1-1,.16c-6.23,1-12.45.42-18.63-.3-21.24-2.46-42-7.45-62.37-13.71-8.75-2.69-17.44-5.56-25.9-9l-.12,2a343.17,343.17,0,0,0,95.3,23.41C128.51,271.16,133.57,271.24,138.44,269.69Z" transform="translate(0 -1)" style="fill:#03949b;opacity:0.45"/><path d="M37.87,228.9c.79.13,2,.63,2.23-.56.3-1.41-1.05-1.36-2-1.51-2.73-.43-5.46-.84-8.2-1.21-.07.7-.13,1.41-.2,2.11C32.46,228.08,35.17,228.48,37.87,228.9Z" transform="translate(0 -1)" style="fill:#03949b;opacity:0.45"/><path d="M28.9,237.53c0-.49.07-1,.11-1.46a1.11,1.11,0,0,0-.26.7A1.31,1.31,0,0,0,28.9,237.53Z" transform="translate(0 -1)" style="fill:#03949b"/><path d="M31.13,238.13c3.33.23,6.17-1.18,8.72-3.14,4-3.1,7.93-6.43,12-9.48a30.42,30.42,0,0,1,19.37-6.41c10.73.6,20.28,5.44,26.22,16.44a92.39,92.39,0,0,1,5,11.92c1.19,3.22,2.34,6.47,4.45,9.25a9.57,9.57,0,0,0,4.63,3.35,1,1,0,0,0,.92-1.85c-5.13-2-6.12-6.94-7.9-11.27-1.68-4.07-3.06-8.27-5.13-12.17C93.8,224.09,84.81,218.48,73,217.16c-9.73-1.08-17.81,2.73-25.19,8.65-3.43,2.75-6.63,5.79-10.32,8.2a10.1,10.1,0,0,1-6.4,2c-.69,0-1.63-.47-2.07,0,0,.48-.08,1-.11,1.46C29.28,238.21,30.39,238.08,31.13,238.13Z" transform="translate(0 -1)" style="fill:#03949b;opacity:0.45"/><path d="M72.12,256.56c8,2.1,16,4,24.84,5.67,0,0,.71,0,.86-1s-.48-1.05-1.11-1.19l-6.43-1.39c-21-4.69-41.74-10.27-61.58-18.58l-.15,2.31A347.13,347.13,0,0,0,72.12,256.56Z" transform="translate(0 -1)" style="fill:#03949b;opacity:0.45"/><path d="M90.18,270.84c-6.75,4.63-14,7.27-22.29,6.09-12.43-1.76-20.79-8.66-25.48-20.27-.34-.85-.63-2.18-1.89-1.59-1,.47-.41,1.55-.11,2.36C45.58,271,57.48,279.3,71.9,279.31c7.2,0,13.54-2.54,19.31-6.67,1.11-.79,3.57-1.54,2.59-3C92.67,267.89,91.25,270.1,90.18,270.84Z" transform="translate(0 -1)" style="fill:#03949b;opacity:0.45"/><path d="M69.14,222.47a23.65,23.65,0,0,0-8.44,2.07c-.73.32-1.25.79-.88,1.61s1,.65,1.58.4,1-.4,1.47-.57A23.53,23.53,0,0,1,94.1,251.13c-.14,1.22-.45,2.43-.63,3.65-.11.68-.3,1.55.66,1.71s1.2-.57,1.39-1.31.32-1.19.45-1.8C99.2,237.4,86.93,222.4,69.14,222.47Z" transform="translate(0 -1)" style="fill:#03949b;opacity:0.45"/><path d="M58.29,264.48a21.77,21.77,0,0,0,12.46,4.31,10.85,10.85,0,0,0,6-1.43,1.64,1.64,0,0,0,1-1.47c0-.78-.63-1-1.24-1.11a104.91,104.91,0,0,1-19.42-5.52,1.28,1.28,0,0,0-1.66.31c-.47.61-.16,1.19.13,1.72A10,10,0,0,0,58.29,264.48Z" transform="translate(0 -1)" style="fill:#03949b;opacity:0.45"/><path d="M47.93,260.07c4.82,8.89,12.31,13.47,22,14.07,1.52-.08,2.75-.1,4-.23a1.05,1.05,0,0,0,1-1.25c-.09-.65-.62-.8-1.18-.8s-1,.06-1.57.07c-10.22.29-17.67-4.2-22.53-13.18a8,8,0,0,0-.75-1.39,1,1,0,0,0-1.79.77A10.25,10.25,0,0,0,47.93,260.07Z" transform="translate(0 -1)" style="fill:#03949b;opacity:0.45"/><path d="M106.61,262.77c-.28,1.52,1.17,1.31,2,1.43A131.21,131.21,0,0,0,128,265.87c1.93,0,3.86.05,5.79,0,.75,0,1.76-.17,1.62-1.28-.12-.88-1-.86-1.7-.81-8.37.64-16.63-.56-24.9-1.63C107.94,262,106.83,261.53,106.61,262.77Z" transform="translate(0 -1)" style="fill:#03949b;opacity:0.45"/><path d="M56.75,229.28c.49-.37,1-.7,1.11-1.36a.75.75,0,0,0-.36-.93c-.75-.4-1.33,0-1.91.46A25.48,25.48,0,0,0,46,241.62c-.2.78-.82,1.86.47,2.21s1.34-.87,1.55-1.66A23.81,23.81,0,0,1,56.75,229.28Z" transform="translate(0 -1)" style="fill:#03949b;opacity:0.45"/><path d="M77.18,272.16c.24.79,1,.91,1.75.65a25.63,25.63,0,0,0,6.94-3.61,1.73,1.73,0,0,0,.72-1.81,1.22,1.22,0,0,0-1.71-.08,29.21,29.21,0,0,1-6.71,3.51C77.53,271.05,77,271.53,77.18,272.16Z" transform="translate(0 -1)" style="fill:#03949b;opacity:0.45"/><path d="M103.44,261.27c-1.31,0-2.64-1.17-3.91,0a1,1,0,0,0,0,.94c1,1.11,2.56.76,3.67,1.17.86,0,1.71.14,1.83-.77S104.27,261.28,103.44,261.27Z" transform="translate(0 -1)" style="fill:#03949b;opacity:0.45"/><path d="M145.35,408.77a2.18,2.18,0,0,1-1.94-1.2l-8.87-17.48a2.2,2.2,0,0,1,1-2.95,2.17,2.17,0,0,1,2.93.95l8.87,17.49a2.19,2.19,0,0,1-1.94,3.19Z" transform="translate(0 -1)" style="fill:#ddd"/><path d="M14.61,466.42h0a1.75,1.75,0,0,1-1.69-1.35L.05,409.32a1.74,1.74,0,0,1,.2-1.3c.19-.31,18.8-31.16,32-50.58-.31-1.58-.59-3.18-.83-4.76a540.79,540.79,0,0,1-6-84.69c.69-147.35,51-224.46,80.89-257.31a29.62,29.62,0,0,1,43.51-.32c30.38,32.41,81.77,108.78,84.58,256.11a539.4,539.4,0,0,1-4.82,84.77c-.13,1-.29,1.95-.45,2.91,13.22,19.34,32.57,51.41,32.77,51.74a1.76,1.76,0,0,1,.2,1.31l-12.87,55.74a1.73,1.73,0,0,1-1.69,1.35h0a1.74,1.74,0,0,1-1.7-1.34L231.9,404.23l-16.32-12.71c-17.32,28.59-48.52,45.86-83.88,46.33s-67.15-16-85.22-44.18l-16.3,12.69L16.3,465.07A1.73,1.73,0,0,1,14.61,466.42Zm-11-57.19,11,47.78L26.94,405a1.73,1.73,0,0,1,.62-1l18.3-14.26a1.74,1.74,0,0,1,1.38-.33,1.76,1.76,0,0,1,1.17.8c17,27.73,47.5,44.18,81.82,44.18h1.43c34.82-.46,65.45-17.78,81.92-46.31a1.74,1.74,0,0,1,1.17-.84,1.7,1.7,0,0,1,1.4.33l18.36,14.31a1.7,1.7,0,0,1,.63,1l12.31,52.06,11-47.78c-2.77-4.58-20.52-33.81-32.68-51.54a1.79,1.79,0,0,1-.29-1.29c.2-1.17.39-2.34.56-3.52a537.22,537.22,0,0,0,4.77-84.21c-2.78-146.16-53.59-221.73-83.63-253.77a26.14,26.14,0,0,0-38.4.28c-29.58,32.48-79.3,108.78-80,255a536.09,536.09,0,0,0,6,84.13c.27,1.77.59,3.56,1,5.33a1.75,1.75,0,0,1-.27,1.35C23.38,376.62,6.31,404.74,3.6,409.23ZM171.53,128.46Z" transform="translate(0 -1)" style="fill:#ddd"/><polyline points="110.82 413.79 131.5 496.81 150.98 413.5" style="fill:#fdfde2"/><path d="M131.5,500a2.17,2.17,0,0,1-2.11-1.66l-20.68-83a2.18,2.18,0,1,1,4.22-1.06l18.5,74.27L148.86,414a2.18,2.18,0,1,1,4.24,1l-19.48,83.31a2.19,2.19,0,0,1-2.1,1.69Z" transform="translate(0 -1)" style="fill:#ddd"/><path d="M157.9,92.43c-7.66-10.34-15-16.54-21-20.25a17,17,0,0,0-17.58.1C108.09,79.46,92,95.68,78.83,132.17a34.39,34.39,0,0,0-1.75,7.24c-1.3,10.1,2.14,20.23,9.93,28.61a46.19,46.19,0,0,0,5.51,5L175.7,124.7C169.94,110.94,163.84,100.45,157.9,92.43Z" transform="translate(0 -1)" style="fill:#5bdcff"/><path d="M126.57,184.21c.82,0,1.66,0,2.51,0s1.75,0,2.58,0c15.66-.28,30-6.35,39.26-16.65a37.34,37.34,0,0,0,9-17.16,164.06,164.06,0,0,0-9.92-21,1.22,1.22,0,0,1,.76-1.76,1.84,1.84,0,0,1,2.18.61,149.25,149.25,0,0,1,7.69,15.6,33.64,33.64,0,0,0-2.22-12.23c-.91-2.39-1.83-4.68-2.75-6.89L92.52,173C101.66,180.12,113.69,184.13,126.57,184.21Z" transform="translate(0 -1)" style="fill:#24d6ff"/></g></svg>